<svg width="70" height="72" viewBox="0 0 70 72" fill="none" xmlns="http://www.w3.org/2000/svg">
<path d="M64.8786 32.6611L51.4547 40.5178L56.4474 43.3554L69.9976 35.6575L64.8786 32.6611Z" fill="url(#paint0_linear_1_17)"/>
<path d="M5.12084 32.6611L18.5427 40.5178L13.552 43.3554L0.0018158 35.6575L5.12084 32.6611Z" fill="url(#paint1_linear_1_17)"/>
<path d="M35 22.9222V34.1624L0 14.2547L12.1019 9.52473L35 22.9222Z" fill="url(#paint2_linear_1_17)"/>
<path d="M0.0018158 14.2587V29.6647L34.9998 50.1489V34.1624L0.0018158 14.2587Z" fill="url(#paint3_linear_1_17)"/>
<path d="M70 14.2547L35 34.1624V22.9222L57.8981 9.52473L70 14.2547Z" fill="url(#paint4_linear_1_17)"/>
<path d="M69.998 14.2587V29.6647L35 50.1489V34.1624L69.998 14.2587Z" fill="url(#paint5_linear_1_17)"/>
<path d="M0.0018158 35.6495V51.0534L34.9998 71.5377V55.5512L0.0018158 35.6495Z" fill="url(#paint6_linear_1_17)"/>
<path d="M69.998 35.6495V51.0534L35 71.5377V55.5512L69.998 35.6495Z" fill="url(#paint7_linear_1_17)"/>
<path d="M35.0002 0.57214V16.8642L18.0481 7.20059L28.3636 3.16526L35.0002 0.57214Z" fill="url(#paint8_linear_1_17)"/>
<path d="M51.952 7.20059L35 16.8642V0.57214L41.6345 3.16526L51.952 7.20059Z" fill="url(#paint9_linear_1_17)"/>
<defs>
<linearGradient id="paint0_linear_1_17" x1="59.3909" y1="35.5516" x2="62.4057" y2="41.2736" gradientUnits="userSpaceOnUse">
<stop stop-color="#03AB9E"/>
<stop offset="1" stop-color="#52DAD8"/>
</linearGradient>
<linearGradient id="paint1_linear_1_17" x1="10.6086" y1="35.5516" x2="7.59378" y2="41.2736" gradientUnits="userSpaceOnUse">
<stop stop-color="#52DAD8"/>
<stop offset="1" stop-color="#03AB9E"/>
</linearGradient>
<linearGradient id="paint2_linear_1_17" x1="34.8004" y1="20.7935" x2="0.906473" y2="23.957" gradientUnits="userSpaceOnUse">
<stop stop-color="#52DAD8"/>
<stop offset="1" stop-color="#03AB9E"/>
</linearGradient>
<linearGradient id="paint3_linear_1_17" x1="34.6678" y1="30.6017" x2="0.386813" y2="33.8019" gradientUnits="userSpaceOnUse">
<stop stop-color="#03AB9E"/>
<stop offset="1" stop-color="#52DAD8"/>
</linearGradient>
<linearGradient id="paint4_linear_1_17" x1="70.497" y1="19.5978" x2="33.9591" y2="23.0098" gradientUnits="userSpaceOnUse">
<stop stop-color="#52DAD8"/>
<stop offset="1" stop-color="#03AB9E"/>
</linearGradient>
<linearGradient id="paint5_linear_1_17" x1="35.332" y1="30.6017" x2="69.613" y2="33.8019" gradientUnits="userSpaceOnUse">
<stop stop-color="#52DAD8"/>
<stop offset="1" stop-color="#03AB9E"/>
</linearGradient>
<linearGradient id="paint6_linear_1_17" x1="34.6678" y1="51.9905" x2="0.386812" y2="55.1906" gradientUnits="userSpaceOnUse">
<stop stop-color="#03AB9E"/>
<stop offset="1" stop-color="#52DAD8"/>
</linearGradient>
<linearGradient id="paint7_linear_1_17" x1="35.332" y1="51.9905" x2="69.613" y2="55.1906" gradientUnits="userSpaceOnUse">
<stop stop-color="#52DAD8"/>
<stop offset="1" stop-color="#03AB9E"/>
</linearGradient>
<linearGradient id="paint8_linear_1_17" x1="35.7539" y1="8.64891" x2="18.3354" y2="10.2744" gradientUnits="userSpaceOnUse">
<stop stop-color="#52DAD8"/>
<stop offset="1" stop-color="#03AB9E"/>
</linearGradient>
<linearGradient id="paint9_linear_1_17" x1="51.9459" y1="7.13541" x2="34.2463" y2="8.78946" gradientUnits="userSpaceOnUse">
<stop stop-color="#52DAD8"/>
<stop offset="1" stop-color="#03AB9E"/>
</linearGradient>
</defs>
</svg>
